<?xml version="1.0" encoding="UTF-8"?>
<svg width="878px" height="878px" viewBox="0 0 878 878" version="1.1" xmlns="http://www.w3.org/2000/svg" xmlns:xlink="http://www.w3.org/1999/xlink">
    <title>circle_logo</title>
    <defs>
        <linearGradient x1="50%" y1="0%" x2="50%" y2="100%" id="linearGradient-1">
            <stop stop-color="#4D4D4D" offset="0%"></stop>
            <stop stop-color="#464646" offset="100%"></stop>
        </linearGradient>
        <filter x="-0.7%" y="-0.7%" width="101.5%" height="101.5%" filterUnits="objectBoundingBox" id="filter-2">
            <feGaussianBlur stdDeviation="2" in="SourceGraphic"></feGaussianBlur>
        </filter>
        <linearGradient x1="1.38344197e-14%" y1="3.60822483e-14%" x2="100%" y2="100%" id="linearGradient-3">
            <stop stop-color="#AEF3FF" offset="0%"></stop>
            <stop stop-color="#00D9FF" offset="100%"></stop>
        </linearGradient>
        <path d="M529.420027,164.092233 C539.980767,169.408317 550.148451,175.385012 559.868171,181.967693 L504.42566,237.115097 C505.82622,237.081432 507.230948,237.064503 508.639651,237.064503 C522.286393,237.064503 535.560137,238.65325 548.284191,241.654964 L587.115623,203.027475 C595.677535,210.547048 603.763182,218.590935 611.321792,227.108628 L583.916028,254.37252 C594.507046,259.54008 604.482746,265.764097 613.704318,272.906479 L632.490905,254.215357 C639.10776,263.884877 645.115482,274.000049 650.459165,284.506247 L638.499445,296.406226 C646.047224,305.141732 652.719684,314.647359 658.381456,324.788436 L664.862004,318.340151 C669.13669,330.648769 672.549564,343.357232 675.028858,356.39414 L672.720745,358.692955 C676.658251,371.853323 679.039588,385.680479 679.652467,399.963231 L679.710315,399.902956 C679.777083,402.377713 679.81068,404.8607 679.81068,407.351494 C679.81068,422.392338 678.585591,437.148525 676.229267,451.526685 L673.130928,454.617221 C656.888019,510.662517 612.487009,554.834212 556.150756,570.993232 L450.341559,676.247764 C435.888754,678.591918 421.055961,679.81068 405.937034,679.81068 C403.433309,679.81068 400.937431,679.777256 398.449827,679.710834 L501.213032,577.48109 C486.856904,576.871408 472.958687,574.502592 459.730637,570.5858 L354.715137,675.053554 C341.610548,672.587065 328.83611,669.191817 316.463592,664.939208 L404.228364,577.630177 L405.937034,577.638485 C423.828067,577.638485 441.078009,574.907825 457.288721,569.842589 C387.841237,548.142133 337.468622,483.599009 337.468622,407.351494 C337.468622,331.103979 387.841237,266.560855 457.285885,244.861048 C454.970044,244.135907 452.630563,243.459298 450.270993,242.831592 L529.420027,164.092233 Z M655.303398,519.980583 C627.913047,579.711478 579.711478,627.913047 519.980583,655.303398 L655.303398,519.980583 Z M329.524104,557.274272 C340.507872,563.005503 352.19116,567.58306 364.412621,570.845857 L285.153222,649.975728 C274.577756,644.633278 264.395894,638.626942 254.662621,632.011614 L329.524104,557.274272 Z M274.965376,514.652913 C282.281268,523.592933 290.475028,531.786693 299.415049,539.102585 L225.835069,612.682039 C217.187214,605.047556 209.020405,596.880747 201.385922,588.232892 L274.965376,514.652913 Z M243.222104,449.65534 C246.484901,461.876801 251.062458,473.560089 256.793689,484.543857 L182.056347,559.40534 C175.441019,549.672067 169.434683,539.490205 164.092233,528.914739 L243.222104,449.65534 Z M247.203883,351.626214 C241.091572,369.122756 237.77088,387.914459 237.77088,407.476103 L237.783753,409.173567 L149.77897,496.538835 C145.492925,484.223781 142.070935,471.508695 139.584951,458.465006 L247.203883,351.626214 Z M407.033387,134.257282 C409.527793,134.257282 412.014378,134.290763 414.492718,134.357301 L134.357301,414.492718 C134.290763,412.014378 134.257282,409.527793 134.257282,407.033387 C134.257282,391.97653 135.477221,377.204605 137.823648,362.811062 L362.811062,137.823648 C377.204605,135.477221 391.97653,134.257282 407.033387,134.257282 Z M294.087379,158.764563 L158.764563,294.087379 C186.153967,234.355836 234.355836,186.153967 294.087379,158.764563 Z M458.465006,139.584951 C471.508695,142.070935 484.223781,145.492925 496.538835,149.77897 L409.176084,237.779246 C408.61008,237.773673 408.043415,237.77088 407.476103,237.77088 C387.914459,237.77088 369.122756,241.091572 351.626214,247.203883 L458.465006,139.584951 Z" id="path-4"></path>
        <filter x="-3.7%" y="-2.9%" width="107.3%" height="107.3%" filterUnits="objectBoundingBox" id="filter-5">
            <feOffset dx="0" dy="4" in="SourceAlpha" result="shadowOffsetOuter1"></feOffset>
            <feGaussianBlur stdDeviation="6" in="shadowOffsetOuter1" result="shadowBlurOuter1"></feGaussianBlur>
            <feColorMatrix values="0 0 0 0 0   0 0 0 0 0   0 0 0 0 0  0 0 0 0.401606206 0" type="matrix" in="shadowBlurOuter1"></feColorMatrix>
        </filter>
        <filter x="-3.3%" y="-2.6%" width="106.6%" height="106.6%" filterUnits="objectBoundingBox" id="filter-6">
            <feGaussianBlur stdDeviation="3" in="SourceAlpha" result="shadowBlurInner1"></feGaussianBlur>
            <feOffset dx="0" dy="-6" in="shadowBlurInner1" result="shadowOffsetInner1"></feOffset>
            <feComposite in="shadowOffsetInner1" in2="SourceAlpha" operator="arithmetic" k2="-1" k3="1" result="shadowInnerInner1"></feComposite>
            <feColorMatrix values="0 0 0 0 0   0 0 0 0 0   0 0 0 0 0  0 0 0 0.300699301 0" type="matrix" in="shadowInnerInner1" result="shadowMatrixInner1"></feColorMatrix>
            <feGaussianBlur stdDeviation="3" in="SourceAlpha" result="shadowBlurInner2"></feGaussianBlur>
            <feOffset dx="0" dy="6" in="shadowBlurInner2" result="shadowOffsetInner2"></feOffset>
            <feComposite in="shadowOffsetInner2" in2="SourceAlpha" operator="arithmetic" k2="-1" k3="1" result="shadowInnerInner2"></feComposite>
            <feColorMatrix values="0 0 0 0 1   0 0 0 0 1   0 0 0 0 1  0 0 0 0.504397946 0" type="matrix" in="shadowInnerInner2" result="shadowMatrixInner2"></feColorMatrix>
            <feMerge>
                <feMergeNode in="shadowMatrixInner1"></feMergeNode>
                <feMergeNode in="shadowMatrixInner2"></feMergeNode>
            </feMerge>
        </filter>
    </defs>
    <g id="Page-1" stroke="none" stroke-width="1" fill="none" fill-rule="evenodd">
        <g id="Artboard" transform="translate(-57, -32)">
            <g id="circle_logo" transform="translate(57, 32)">
                <g transform="translate(31.966, 31.966)">
                    <path d="M407.033981,5.68434189e-14 L407.033981,0 C481.975337,0 552.181786,20.2455459 612.483117,55.5664243 C672.784447,90.8873028 723.180658,141.283514 758.501537,201.584844 C793.822415,261.886175 814.067961,332.092625 814.067961,407.033981 C814.067961,481.975337 793.822415,552.181786 758.501537,612.483117 C723.180658,672.784447 672.784447,723.180658 612.483117,758.501537 C552.181786,793.822415 481.975337,814.067961 407.033981,814.067961 C332.092625,814.067961 261.886175,793.822415 201.584844,758.501537 C141.283514,723.180658 90.8873028,672.784447 55.5664243,612.483117 C20.2455458,552.181786 5.68434189e-14,481.975337 5.68434189e-14,407.033981 L-8.5931729e-18,407.033981 C1.89429368e-14,332.092625 20.2455459,261.886175 55.5664243,201.584844 C90.8873028,141.283514 141.283514,90.8873028 201.584844,55.5664243 C261.886175,20.2455459 332.092625,5.68434189e-14 407.033981,5.68434189e-14 Z" id="Rectangle" fill="url(#linearGradient-1)" filter="url(#filter-2)"></path>
                    <g id="Shape-Copy">
                        <use fill="black" fill-opacity="1" filter="url(#filter-5)" xlink:href="#path-4"></use>
                        <use fill="url(#linearGradient-3)" fill-rule="evenodd" xlink:href="#path-4"></use>
                        <use fill="black" fill-opacity="1" filter="url(#filter-6)" xlink:href="#path-4"></use>
                    </g>
                </g>
            </g>
        </g>
    </g>
</svg>