<?xml version="1.0" encoding="UTF-8"?>
<svg width="241px" height="241px" viewBox="0 0 241 241" version="1.1" xmlns="http://www.w3.org/2000/svg" xmlns:xlink="http://www.w3.org/1999/xlink">
    <title>Shape Copy 2</title>
    <defs>
        <linearGradient x1="1.38344197e-14%" y1="3.60822483e-14%" x2="100%" y2="100%" id="linearGradient-1">
            <stop stop-color="#FFFFFF" offset="0%"></stop>
            <stop stop-color="#FFFFFF" offset="100%"></stop>
        </linearGradient>
        <path d="M1376.01796,373.033981 C1380.23241,375.147144 1384.29,377.522902 1388.16883,380.139542 L1366.04353,402.060841 C1366.60244,402.047459 1367.16303,402.040729 1367.72519,402.040729 C1373.17116,402.040729 1378.46828,402.672262 1383.54604,403.865455 L1399.0424,388.510884 C1402.45918,391.499942 1405.6859,394.697417 1408.70229,398.083232 L1397.76555,408.92073 C1401.99208,410.974854 1405.97305,413.448925 1409.65308,416.288048 L1417.1502,408.858257 C1419.79077,412.701928 1422.18826,416.722746 1424.32075,420.898999 L1419.54801,425.629285 C1422.56008,429.101681 1425.22285,432.880203 1427.48227,436.911319 L1430.06845,434.348102 C1431.77434,439.240823 1433.13631,444.292484 1434.12571,449.474704 L1433.20462,450.388491 C1434.77595,455.619786 1435.72626,461.116132 1435.97084,466.793579 L1435.99393,466.76962 C1436.02057,467.753345 1436.03398,468.740342 1436.03398,469.730441 C1436.03398,475.709233 1435.54509,481.574872 1434.60476,487.290244 L1433.36831,488.518743 C1426.88629,510.796957 1409.16729,528.35537 1386.68533,534.778641 L1344.46032,576.617708 C1338.69268,577.549518 1332.77339,578.033981 1326.73992,578.033981 C1325.74076,578.033981 1324.74474,578.020695 1323.75202,577.994291 L1364.76147,537.357588 C1359.03241,537.115237 1353.48608,536.173624 1348.2072,534.616685 L1306.29893,576.143006 C1301.06931,575.162567 1295.97145,573.812943 1291.03398,572.122515 L1326.05805,537.416851 L1326.73992,537.420153 C1333.87965,537.420153 1340.76354,536.334706 1347.23271,534.321256 C1319.51848,525.695244 1299.4164,500.039112 1299.4164,469.730441 C1299.4164,439.42177 1319.51848,413.765639 1347.23158,405.139885 C1346.3074,404.851638 1345.37379,404.582684 1344.43216,404.333169 L1376.01796,373.033981 Z M1427.03398,515.033981 C1416.10398,538.869343 1396.86934,558.103976 1373.03398,569.033981 L1427.03398,515.033981 Z M1297.36468,529.033981 C1301.66811,531.321491 1306.24562,533.148535 1311.03398,534.450817 L1279.98018,566.033981 C1275.83672,563.901645 1271.84747,561.504331 1268.03398,558.863951 L1297.36468,529.033981 Z M1275.3069,513.033981 C1278.21746,516.590687 1281.47727,519.8505 1285.03398,522.761061 L1255.76085,552.033981 C1252.32038,548.996671 1249.07129,545.74758 1246.03398,542.307109 L1275.3069,513.033981 Z M1262.61714,487.033981 C1263.91943,491.822344 1265.74647,496.39985 1268.03398,500.703286 L1238.20401,530.033981 C1235.56363,526.220489 1233.16632,522.23124 1231.03398,518.087777 L1262.61714,487.033981 Z M1264.03398,448.033981 C1261.59176,455.036817 1260.26495,462.558031 1260.26495,470.387407 L1260.27009,471.066802 L1225.10708,506.033981 C1223.39456,501.104989 1222.02728,496.015887 1221.03398,490.795266 L1264.03398,448.033981 Z M1327.07937,361.033981 C1328.0674,361.033981 1329.05232,361.047242 1330.03398,361.073598 L1219.0736,472.033981 C1219.04724,471.052321 1219.03398,470.067396 1219.03398,469.079373 C1219.03398,463.115419 1219.51719,457.264326 1220.4466,451.563108 L1309.56311,362.446603 C1315.26433,361.517193 1321.11542,361.033981 1327.07937,361.033981 Z M1283.03398,371.033981 L1229.03398,425.033981 C1239.96361,401.19836 1259.19836,381.963607 1283.03398,371.033981 Z M1348.79527,363.033981 C1354.01589,364.027275 1359.10499,365.394558 1364.03398,367.107082 L1329.06781,402.268292 C1328.84127,402.266065 1328.61447,402.264949 1328.38741,402.264949 C1320.55803,402.264949 1313.03682,403.591758 1306.03398,406.033981 L1348.79527,363.033981 Z" id="path-2"></path>
        <filter x="-9.2%" y="-7.4%" width="118.4%" height="118.4%" filterUnits="objectBoundingBox" id="filter-3">
            <feOffset dx="0" dy="4" in="SourceAlpha" result="shadowOffsetOuter1"></feOffset>
            <feGaussianBlur stdDeviation="6" in="shadowOffsetOuter1" result="shadowBlurOuter1"></feGaussianBlur>
            <feColorMatrix values="0 0 0 0 0   0 0 0 0 0   0 0 0 0 0  0 0 0 0.401606206 0" type="matrix" in="shadowBlurOuter1"></feColorMatrix>
        </filter>
        <filter x="-8.3%" y="-6.5%" width="116.6%" height="116.6%" filterUnits="objectBoundingBox" id="filter-4">
            <feGaussianBlur stdDeviation="3" in="SourceAlpha" result="shadowBlurInner1"></feGaussianBlur>
            <feOffset dx="0" dy="-6" in="shadowBlurInner1" result="shadowOffsetInner1"></feOffset>
            <feComposite in="shadowOffsetInner1" in2="SourceAlpha" operator="arithmetic" k2="-1" k3="1" result="shadowInnerInner1"></feComposite>
            <feColorMatrix values="0 0 0 0 0   0 0 0 0 0   0 0 0 0 0  0 0 0 0.300699301 0" type="matrix" in="shadowInnerInner1" result="shadowMatrixInner1"></feColorMatrix>
            <feGaussianBlur stdDeviation="3" in="SourceAlpha" result="shadowBlurInner2"></feGaussianBlur>
            <feOffset dx="0" dy="6" in="shadowBlurInner2" result="shadowOffsetInner2"></feOffset>
            <feComposite in="shadowOffsetInner2" in2="SourceAlpha" operator="arithmetic" k2="-1" k3="1" result="shadowInnerInner2"></feComposite>
            <feColorMatrix values="0 0 0 0 1   0 0 0 0 1   0 0 0 0 1  0 0 0 0.504397946 0" type="matrix" in="shadowInnerInner2" result="shadowMatrixInner2"></feColorMatrix>
            <feMerge>
                <feMergeNode in="shadowMatrixInner1"></feMergeNode>
                <feMergeNode in="shadowMatrixInner2"></feMergeNode>
            </feMerge>
        </filter>
    </defs>
    <g id="Page-1" stroke="none" stroke-width="1" fill="none" fill-rule="evenodd">
        <g id="Artboard" transform="translate(-1527, -426)">
            <g id="Group-Copy-3" transform="translate(288, 41)">
                <g id="Shape-Copy-2" transform="translate(31.966, 31.966)">
                    <use fill="black" fill-opacity="1" filter="url(#filter-3)" xlink:href="#path-2"></use>
                    <use fill="url(#linearGradient-1)" fill-rule="evenodd" xlink:href="#path-2"></use>
                    <use fill="black" fill-opacity="1" filter="url(#filter-4)" xlink:href="#path-2"></use>
                </g>
            </g>
        </g>
    </g>
</svg>