<?xml version="1.0" encoding="UTF-8"?>
<svg width="241px" height="241px" viewBox="0 0 241 241" version="1.1" xmlns="http://www.w3.org/2000/svg" xmlns:xlink="http://www.w3.org/1999/xlink">
    <title>Shape Copy 3</title>
    <defs>
        <linearGradient x1="1.38344197e-14%" y1="3.60822483e-14%" x2="100%" y2="100%" id="linearGradient-1">
            <stop stop-color="#000000" offset="0%"></stop>
            <stop stop-color="#000000" offset="100%"></stop>
        </linearGradient>
        <path d="M156.983984,12 C161.198432,14.1131633 165.256024,16.4889216 169.134847,19.1055617 L147.009546,41.02686 C147.568463,41.0134781 148.129045,41.0067487 148.691212,41.0067487 C154.137183,41.0067487 159.434302,41.6382814 164.512058,42.8314741 L180.008419,27.4769034 C183.4252,30.4659617 186.651918,33.6634366 189.668314,37.0492511 L178.731565,47.8867497 C182.958096,49.9408739 186.939073,52.414944 190.619102,55.2540675 L198.116218,47.8242767 C200.756789,51.6679472 203.154276,55.6887654 205.286766,59.8650182 L200.51403,64.5953043 C203.526103,68.0677002 206.188865,71.8462222 208.448294,75.8773382 L211.03447,73.314121 C212.740358,78.2068425 214.102325,83.2585036 215.09173,88.440723 L214.170638,89.3545105 C215.741968,94.5858056 216.692282,100.082152 216.936862,105.759599 L216.959948,105.735639 C216.986593,106.719364 217,107.706361 217,108.696461 C217,114.675252 216.511107,120.540891 215.570775,126.256264 L214.334329,127.484763 C207.852312,149.762977 190.133314,167.321389 167.651348,173.74466 L125.42634,215.583728 C119.658696,216.515538 113.739411,217 107.705939,217 C106.706784,217 105.710761,216.986714 104.718039,216.960311 L145.72749,176.323607 C139.998426,176.081257 134.4521,175.139644 129.173216,173.582704 L87.2649467,215.109025 C82.0353318,214.128586 76.9374693,212.778963 72,211.088535 L107.024065,176.38287 L107.705939,176.386173 C114.845668,176.386173 121.729559,175.300725 128.198727,173.287275 C100.484496,164.661263 80.382424,139.005132 80.382424,108.696461 C80.382424,78.3877899 100.484496,52.7316582 128.197595,44.1059043 C127.273418,43.8176579 126.339807,43.5487036 125.39818,43.2991881 L156.983984,12 Z M208,154 C197.069996,177.835362 177.835362,197.069996 154,208 L208,154 Z M78.3306948,168 C82.6341302,170.287511 87.211637,172.114554 92,173.416837 L60.9462036,205 C56.8027406,202.867664 52.8134919,200.470351 49,197.82997 L78.3306948,168 Z M56.2729193,152 C59.1834806,155.556706 62.4432938,158.816519 66,161.727081 L36.7268716,191 C33.2864008,187.96269 30.0373098,184.713599 27,181.273128 L56.2729193,152 Z M43.5831631,126 C44.8854459,130.788363 46.7124893,135.36587 49,139.669305 L19.1700299,169 C16.5296493,165.186508 14.1323359,161.197259 12,157.053796 L43.5831631,126 Z M45,87 C42.5577774,94.0028368 41.2309684,101.52405 41.2309684,109.353426 L41.2361118,110.032821 L6.07310113,145 C4.36057789,140.071008 2.99329443,134.981907 2,129.761285 L45,87 Z M108.045392,0 C109.033415,0 110.01834,0.0132618298 111,0.0396171918 L0.0396171918,111 C0.0132618298,110.01834 0,109.033415 0,108.045392 C0,102.081439 0.483212368,96.2303455 1.41262194,90.5291277 L90.5291277,1.41262194 C96.2303455,0.483212368 102.081439,0 108.045392,0 Z M64,10 L10,64 C20.9296262,40.1643793 40.1643793,20.9296262 64,10 Z M129.761285,2 C134.981907,2.99329443 140.071008,4.36057789 145,6.07310113 L110.033829,41.2343111 C109.80729,41.2320844 109.580488,41.2309684 109.353426,41.2309684 C101.52405,41.2309684 94.0028368,42.5577774 87,45 L129.761285,2 Z" id="path-2"></path>
        <filter x="-9.2%" y="-7.4%" width="118.4%" height="118.4%" filterUnits="objectBoundingBox" id="filter-3">
            <feOffset dx="0" dy="4" in="SourceAlpha" result="shadowOffsetOuter1"></feOffset>
            <feGaussianBlur stdDeviation="6" in="shadowOffsetOuter1" result="shadowBlurOuter1"></feGaussianBlur>
            <feColorMatrix values="0 0 0 0 0   0 0 0 0 0   0 0 0 0 0  0 0 0 0.401606206 0" type="matrix" in="shadowBlurOuter1"></feColorMatrix>
        </filter>
        <filter x="-8.3%" y="-6.5%" width="116.6%" height="116.6%" filterUnits="objectBoundingBox" id="filter-4">
            <feGaussianBlur stdDeviation="3" in="SourceAlpha" result="shadowBlurInner1"></feGaussianBlur>
            <feOffset dx="0" dy="-6" in="shadowBlurInner1" result="shadowOffsetInner1"></feOffset>
            <feComposite in="shadowOffsetInner1" in2="SourceAlpha" operator="arithmetic" k2="-1" k3="1" result="shadowInnerInner1"></feComposite>
            <feColorMatrix values="0 0 0 0 0   0 0 0 0 0   0 0 0 0 0  0 0 0 0.300699301 0" type="matrix" in="shadowInnerInner1" result="shadowMatrixInner1"></feColorMatrix>
            <feGaussianBlur stdDeviation="3" in="SourceAlpha" result="shadowBlurInner2"></feGaussianBlur>
            <feOffset dx="0" dy="6" in="shadowBlurInner2" result="shadowOffsetInner2"></feOffset>
            <feComposite in="shadowOffsetInner2" in2="SourceAlpha" operator="arithmetic" k2="-1" k3="1" result="shadowInnerInner2"></feComposite>
            <feColorMatrix values="0 0 0 0 1   0 0 0 0 1   0 0 0 0 1  0 0 0 0.504397946 0" type="matrix" in="shadowInnerInner2" result="shadowMatrixInner2"></feColorMatrix>
            <feMerge>
                <feMergeNode in="shadowMatrixInner1"></feMergeNode>
                <feMergeNode in="shadowMatrixInner2"></feMergeNode>
            </feMerge>
        </filter>
    </defs>
    <g id="Page-1" stroke="none" stroke-width="1" fill="none" fill-rule="evenodd">
        <g id="Artboard" transform="translate(-1268, -61)">
            <g id="Shape-Copy-3" transform="translate(1280, 69)">
                <use fill="black" fill-opacity="1" filter="url(#filter-3)" xlink:href="#path-2"></use>
                <use fill="url(#linearGradient-1)" fill-rule="evenodd" xlink:href="#path-2"></use>
                <use fill="black" fill-opacity="1" filter="url(#filter-4)" xlink:href="#path-2"></use>
            </g>
        </g>
    </g>
</svg>